<svg xmlns="http://www.w3.org/2000/svg" width="58" height="58" viewBox="0 0 58 58"><defs><style>.a{fill:#a6b2bc;}.b{fill:#c4d4e0;}.c{fill:#8acce7;}.d{fill:#2d80b3;}.e{fill:#2f4054;}.f{fill:#1a1e38;}.g{fill:#f4ceaf;}.h{fill:#fe0002;}.i{fill:#c60607;}.j{fill:#eedc9a;}.k{fill:#eebe33;}.l{fill:#f2c194;}.m{fill:#3e5066;}</style></defs><g transform="translate(-24 -16)"><path class="a" d="M0,0H4.193V6.988H0Z" transform="translate(56.405 56.535) rotate(-45)"/><ellipse class="b" cx="21" cy="20.5" rx="21" ry="20.5" transform="translate(24 22)"/><ellipse class="c" cx="16.58" cy="17.054" rx="16.58" ry="17.054" transform="translate(27.79 24.986)"/><path class="b" d="M318.918,352,312,358.918l10.871,10.871h11.86v-1.977Z" transform="translate(-252.731 -295.789)"/><path class="d" d="M331.74,77.641l-1.4-1.4L334.3,72.29a.988.988,0,0,1,.7-.289h15.813v1.977H335.4Z" transform="translate(-268.807 -49.082)"/><path class="e" d="M368,16h5.93v1.977H368Z" transform="translate(-301.754)"/><path class="e" d="M432,16h7.906v1.977H432Z" transform="translate(-357.906)"/><path class="e" d="M344,48h5.93v1.977H344Z" transform="translate(-280.702 -28.047)"/><path class="e" d="M408,48h6.918v1.977H408Z" transform="translate(-336.871 -28.047)"/><path class="d" d="M371.843,255.984H358.995a.988.988,0,0,1-.7-.289l-3.953-3.953,1.4-1.4,3.664,3.664h12.439Z" transform="translate(-289.843 -206.093)"/><g transform="translate(45.433 24.709)"><path class="e" d="M392,336h5.93v1.977H392Z" transform="translate(-368.281 -305.363)"/><path class="e" d="M456,336h4.941v1.977H456Z" transform="translate(-424.374 -305.363)"/><path class="e" d="M408,304h5.93v1.977H408Z" transform="translate(-382.304 -277.316)"/><path class="e" d="M472,304h2.965v1.977H472Z" transform="translate(-438.398 -277.316)"/><path class="e" d="M200,97.883V94.918a6.918,6.918,0,1,1,6.918,6.918Z" transform="translate(-200 -88)"/></g><path class="f" d="M0,0H5.067V1.977H0Z" transform="translate(50.199 30.48) rotate(-45)"/><path class="e" d="M103.408,248.728a16.808,16.808,0,0,1-18.562,13.981,16.29,16.29,0,0,1-1.975-.353,16.682,16.682,0,0,1-4.883-2.047l-4.433-3.99L72,254.918l3.953-3.953,2.556,1.7,2.166,1.443a10.2,10.2,0,0,1,7.7-6.041L88.8,248h11.86l.532.089a10.015,10.015,0,0,1,2.215.639Z" transform="translate(-42.07 -204.176)"/><path class="a" d="M208,248l4.531,11.329h2.8L219.86,248Z" transform="translate(-161.421 -204.115)"/><path class="g" d="M212.848,133.785a2.729,2.729,0,0,1-.8,1.933l-.826.826a1.192,1.192,0,0,1-1.338.242v4.061l-2.965,2.965-2.965-2.965v-1.977A3.954,3.954,0,0,1,200,134.919v-3.954l.169-.169a9.544,9.544,0,0,1,6.749-2.8l1.568,1.568a4.766,4.766,0,0,1,1.363,2.806,1.832,1.832,0,0,1,3,1.412Z" transform="translate(-154.406 -98.577)"/><circle class="e" cx="0.947" cy="0.947" r="0.947" transform="translate(47.556 33.594)"/><circle class="e" cx="0.947" cy="0.947" r="0.947" transform="translate(50.383 33.594)"/><path class="b" d="M261.93,233.977l-3.953,2.965L256,234.965,258.965,232Z" transform="translate(-203.509 -189.953)"/><path class="b" d="M213.93,234.965l-1.977,1.977L208,233.977,210.965,232Z" transform="translate(-161.404 -189.953)"/><path class="h" d="M243.953,257.977l-.988,1.977h-1.977L240,257.977,241.977,256Z" transform="translate(-189.468 -211.046)"/><path class="i" d="M243.953,292.941l-.945,2.361a16.514,16.514,0,0,1-1.69.935l-1.318-3.3.988-4.941h1.977Z" transform="translate(-189.468 -239.252)"/><path class="g" d="M33.883,222.918v-4.941a3.2,3.2,0,0,0-2.861,1.768l-.1.209-3.953-.988A2.965,2.965,0,0,0,24,216v4.941l4.941,2.965,1.977,1.977Z" transform="translate(0 -175.941)"/><path class="j" d="M24,112h9.883v9.883H24Z" transform="translate(0 -84.452)"/><path class="k" d="M48,112h3.953v3.953H48Z" transform="translate(-21.035 -84.419)"/><path class="k" d="M104,112h3.953v9.883H104Z" transform="translate(-70.173 -84.452)"/><path class="f" d="M144.525,284.309l-1.1,1.644-1.208-.805a10.255,10.255,0,0,1,.956-1.738Z" transform="translate(-103.696 -235.13)"/><path class="l" d="M272,161.977l.482-.964a1.832,1.832,0,0,1,3.471.819,2.734,2.734,0,0,1-.8,1.933l-.826.826a1.193,1.193,0,0,1-1.687,0l-.639-.639Z" transform="translate(-217.537 -126.635)"/><path class="h" d="M240.988,273.977h1.977l.988-1.977A2.8,2.8,0,0,1,240,272Z" transform="translate(-189.468 -225.091)"/><path class="m" d="M186.951,261.179q-.335.161-.678.309l-6.57-6.57.988-2.965-1.977.988-.745-3.723a10.17,10.17,0,0,1,3.28-1.146l.43-.072Z" transform="translate(-135.068 -204.151)"/><path class="m" d="M270.985,252.328l-.749-.374.4,1.185a16.9,16.9,0,0,1-6.282,7.106l4.9-12.244.532.089a10.013,10.013,0,0,1,2.215.639A16.61,16.61,0,0,1,270.985,252.328Z" transform="translate(-210.839 -204.13)"/><path class="f" d="M161.977,336v3.837a16.3,16.3,0,0,1-1.977-.353V336Z" transform="translate(-119.291 -281.393)"/><path class="l" d="M232,216h1.977v1.977H232Z" transform="translate(-182.446 -175.852)"/></g></svg>