<svg xmlns="http://www.w3.org/2000/svg" width="57" height="57" viewBox="0 0 57 57"><defs><style>.a{fill:#e1e4fb;}.b{fill:#c5c9f7;}.c{fill:#ffcece;}.d{fill:#fe0002;}.e{fill:#7a7780;}.f{fill:#57555c;}.g{fill:#adacb2;}.h{fill:#8a8891;}.i{fill:#fea832;}.j{fill:#fe9923;}</style></defs><path class="a" d="M50.32,123.563v28.389a5,5,0,0,1-5.01,5.01H5.01A5,5,0,0,1,0,151.951V123.563L3.34,120H46.98Z" transform="translate(0 -106.641)"/><path class="b" d="M251.16,123.563v28.389a5,5,0,0,1-5.01,5.01H226V120h21.82Z" transform="translate(-200.84 -106.641)"/><path class="c" d="M50.32,35.01v8.572H0V35.01A5,5,0,0,1,5.01,30h40.3A5,5,0,0,1,50.32,35.01Z" transform="translate(0 -26.66)"/><path class="d" d="M251.16,35.01v8.572H226V30h20.15A5,5,0,0,1,251.16,35.01Z" transform="translate(-200.84 -26.66)"/><g transform="translate(6.68)"><path class="e" d="M61.67,10.02A1.669,1.669,0,0,1,60,8.35V1.67a1.67,1.67,0,0,1,3.34,0V8.35A1.669,1.669,0,0,1,61.67,10.02Z" transform="translate(-60)"/><path class="e" d="M151.67,10.02A1.669,1.669,0,0,1,150,8.35V1.67a1.67,1.67,0,0,1,3.34,0V8.35A1.669,1.669,0,0,1,151.67,10.02Z" transform="translate(-139.98)"/></g><g transform="translate(30.281)"><path class="f" d="M273.67,10.02A1.669,1.669,0,0,1,272,8.35V1.67a1.67,1.67,0,0,1,3.34,0V8.35A1.669,1.669,0,0,1,273.67,10.02Z" transform="translate(-272)"/><path class="f" d="M363.67,10.02A1.669,1.669,0,0,1,362,8.35V1.67a1.67,1.67,0,0,1,3.34,0V8.35A1.669,1.669,0,0,1,363.67,10.02Z" transform="translate(-351.98)"/></g><g transform="translate(6.68 20.262)"><path class="g" d="M65.01,185.34H61.67a1.67,1.67,0,0,1,0-3.34h3.34a1.67,1.67,0,0,1,0,3.34Z" transform="translate(-60 -182)"/><path class="g" d="M155.121,185.34H151.67a1.67,1.67,0,0,1,0-3.34h3.451a1.67,1.67,0,0,1,0,3.34Z" transform="translate(-139.98 -182)"/></g><g transform="translate(26.83 20.262)"><path class="h" d="M246.121,185.34H242.67a1.67,1.67,0,0,1,0-3.34h3.451a1.67,1.67,0,0,1,0,3.34Z" transform="translate(-241 -182)"/><path class="h" d="M337.01,185.34h-3.34a1.67,1.67,0,0,1,0-3.34h3.34a1.67,1.67,0,0,1,0,3.34Z" transform="translate(-321.869 -182)"/></g><g transform="translate(6.68 26.941)"><path class="g" d="M65.01,245.34H61.67a1.67,1.67,0,0,1,0-3.34h3.34a1.67,1.67,0,0,1,0,3.34Z" transform="translate(-60 -242)"/><path class="g" d="M155.121,245.34H151.67a1.67,1.67,0,0,1,0-3.34h3.451a1.67,1.67,0,0,1,0,3.34Z" transform="translate(-139.98 -242)"/></g><g transform="translate(26.83 26.941)"><path class="h" d="M246.121,245.34H242.67a1.67,1.67,0,0,1,0-3.34h3.451a1.67,1.67,0,0,1,0,3.34Z" transform="translate(-241 -242)"/><path class="h" d="M337.01,245.34h-3.34a1.67,1.67,0,0,1,0-3.34h3.34a1.67,1.67,0,0,1,0,3.34Z" transform="translate(-321.869 -242)"/></g><g transform="translate(6.68 33.621)"><path class="g" d="M65.01,305.34H61.67a1.67,1.67,0,0,1,0-3.34h3.34a1.67,1.67,0,0,1,0,3.34Z" transform="translate(-60 -302)"/><path class="g" d="M155.121,305.34H151.67a1.67,1.67,0,0,1,0-3.34h3.451a1.67,1.67,0,0,1,0,3.34Z" transform="translate(-139.98 -302)"/></g><path class="h" d="M246.121,305.34H242.67a1.67,1.67,0,0,1,0-3.34h3.451a1.67,1.67,0,0,1,0,3.34Z" transform="translate(-214.17 -268.379)"/><g transform="translate(6.68 40.301)"><path class="g" d="M65.01,365.34H61.67a1.67,1.67,0,0,1,0-3.34h3.34a1.67,1.67,0,0,1,0,3.34Z" transform="translate(-60 -362)"/><path class="g" d="M155.121,365.34H151.67a1.67,1.67,0,0,1,0-3.34h3.451a1.67,1.67,0,0,1,0,3.34Z" transform="translate(-139.98 -362)"/></g><path class="h" d="M246.121,365.34H242.67a1.67,1.67,0,0,1,0-3.34h3.451a1.67,1.67,0,0,1,0,3.34Z" transform="translate(-214.17 -321.699)"/><path class="i" d="M313.689,302a11.689,11.689,0,1,0,11.689,11.689A11.7,11.7,0,0,0,313.689,302Z" transform="translate(-268.379 -268.379)"/><path class="j" d="M418.689,313.689A11.7,11.7,0,0,1,407,325.379V302A11.7,11.7,0,0,1,418.689,313.689Z" transform="translate(-361.689 -268.379)"/><path class="e" d="M398.68,340.35a1.654,1.654,0,0,1-1.67,1.67h-3.34a1.654,1.654,0,0,1-1.67-1.67v-6.68a1.67,1.67,0,0,1,3.34,0v5.01h1.67A1.654,1.654,0,0,1,398.68,340.35Z" transform="translate(-348.359 -295.039)"/><path class="f" d="M412.01,340.35a1.654,1.654,0,0,1-1.67,1.67H407V332a1.654,1.654,0,0,1,1.67,1.67v5.01h1.67A1.654,1.654,0,0,1,412.01,340.35Z" transform="translate(-361.689 -295.039)"/></svg>