<svg xmlns="http://www.w3.org/2000/svg" width="68" height="72" viewBox="0 0 68 72"><defs><style>.a{fill:#f4f7fa;}.b{fill:#ffaf10;}.c{fill:#ef9614;}.d{fill:#ff9518;}.e{fill:#ef8318;}.f{fill:#d9eafc;}.g{fill:#c3ddf4;}.h{fill:#db722c;}.i{fill:#52bbef;}.j{fill:#fe3745;}.k{fill:#91e0e8;}.l{fill:#37c47a;}</style></defs><g transform="translate(-11)"><ellipse class="a" cx="34" cy="34.5" rx="34" ry="34.5" transform="translate(11 3)"/><path class="b" d="M63.639,120.075a.7.7,0,0,1-.7-.7V71.247h-4.61a.7.7,0,0,0-.7.7v46.619a34.339,34.339,0,0,0,6.561,6.819h38.516a.7.7,0,0,0,.7-.7v-4.61Z" transform="translate(-40.136 -61.319)"/><path class="c" d="M60.283,71.944a.7.7,0,0,1,.7-.7H58.332a.7.7,0,0,0-.7.7v46.619a34.432,34.432,0,0,0,2.648,3.217Z" transform="translate(-40.136 -61.319)"/><path class="d" d="M98.573,84.722a.7.7,0,0,1-.7-.7V36h-4.3a.7.7,0,0,0-.7.7V89.436a.7.7,0,0,0,.7.7h44.381a.7.7,0,0,0,.7-.7V84.722Z" transform="translate(-70.473 -30.982)"/><path class="e" d="M95.391,89.436V36.695a.7.7,0,0,1,.7-.7H93.58a.7.7,0,0,0-.7.7V89.436a.7.7,0,0,0,.7.7h2.508A.7.7,0,0,1,95.391,89.436Z" transform="translate(-70.473 -30.982)"/><path class="f" d="M171.657,53.438a.7.7,0,0,1-.7.7H126.58a.7.7,0,0,1-.7-.7V.7a.7.7,0,0,1,.7-.7h44.381a.7.7,0,0,1,.7.7Z" transform="translate(-98.874)"/><path class="g" d="M128.647,53.438V.7a.7.7,0,0,1,.7-.7h-2.765a.7.7,0,0,0-.7.7V53.438a.7.7,0,0,0,.7.7h2.765A.7.7,0,0,1,128.647,53.438Z" transform="translate(-98.873)"/><g transform="translate(56.572 4.988)"><path class="h" d="M348.768,37.884h-9.693a1.045,1.045,0,1,1,0-2.09h9.693a1.045,1.045,0,0,1,0,2.09Z" transform="translate(-338.029 -35.794)"/><path class="h" d="M348.768,63.383h-9.693a1.045,1.045,0,1,1,0-2.09h9.693a1.045,1.045,0,0,1,0,2.09Z" transform="translate(-338.029 -57.74)"/><path class="h" d="M348.768,88.881h-9.693a1.045,1.045,0,1,1,0-2.09h9.693a1.045,1.045,0,0,1,0,2.09Z" transform="translate(-338.029 -79.684)"/><path class="h" d="M348.768,114.38h-9.693a1.045,1.045,0,1,1,0-2.09h9.693a1.045,1.045,0,0,1,0,2.09Z" transform="translate(-338.029 -101.63)"/></g><g transform="translate(31.866 40.451)"><path class="i" d="M178.109,292.371H161.783a1.045,1.045,0,1,1,0-2.09h16.326a1.045,1.045,0,0,1,0,2.09Z" transform="translate(-160.738 -290.281)"/><path class="i" d="M178.109,317.869H161.783a1.045,1.045,0,1,1,0-2.09h16.326a1.045,1.045,0,0,1,0,2.09Z" transform="translate(-160.738 -312.226)"/><path class="i" d="M178.109,343.368H161.783a1.045,1.045,0,1,1,0-2.09h16.326a1.045,1.045,0,0,1,0,2.09Z" transform="translate(-160.738 -334.172)"/></g><g transform="translate(31.035 21.849)"><path class="j" d="M316.776,158.878H301.9a1.045,1.045,0,0,1,0-2.09h14.873a1.045,1.045,0,1,1,0,2.09Z" transform="translate(-280.5 -156.788)"/><path class="j" d="M316.776,184.377H301.9a1.045,1.045,0,0,1,0-2.09h14.873a1.045,1.045,0,1,1,0,2.09Z" transform="translate(-280.5 -178.734)"/><path class="j" d="M316.776,209.875H301.9a1.045,1.045,0,0,1,0-2.09h14.873a1.045,1.045,0,1,1,0,2.09Z" transform="translate(-280.5 -200.679)"/><path class="j" d="M316.776,235.373H301.9a1.045,1.045,0,0,1,0-2.09h14.873a1.045,1.045,0,1,1,0,2.09Z" transform="translate(-280.5 -222.623)"/><path class="j" d="M154.77,165.422h4.075a4.075,4.075,0,0,1,4.075-4.075v-4.075A8.15,8.15,0,0,0,154.77,165.422Z" transform="translate(-154.77 -157.205)"/></g><path class="k" d="M228.084,142.442v4.075a4.075,4.075,0,0,1,4.075,4.075h4.075A8.15,8.15,0,0,0,228.084,142.442Z" transform="translate(-186.833 -122.593)"/><g transform="translate(31.035 5.893)"><path class="b" d="M166.994,215.755a4.075,4.075,0,1,1-8.149,0H154.77a8.15,8.15,0,0,0,16.3,0Z" transform="translate(-154.77 -191.582)"/><path class="b" d="M167.547,52.44V42.708a.419.419,0,0,0-.418-.418H164.6a.419.419,0,0,0-.418.418V52.44Z" transform="translate(-162.866 -42.29)"/></g><path class="j" d="M206.665,68.792V61.708a.419.419,0,0,0-.418-.418h-2.534a.419.419,0,0,0-.418.418v7.084Z" transform="translate(-165.498 -52.749)"/><path class="l" d="M245.781,88.587V84.708a.419.419,0,0,0-.418-.418h-2.534a.419.419,0,0,0-.418.418v3.879Z" transform="translate(-199.164 -72.544)"/><path class="k" d="M284.9,52.44V42.708a.419.419,0,0,0-.418-.418h-2.534a.419.419,0,0,0-.418.418V52.44Z" transform="translate(-232.829 -36.397)"/><path class="j" d="M346.405,283.939a.419.419,0,0,1,.418-.418h1.89v-4.677a.7.7,0,0,0-.7-.7h-6.288a.7.7,0,0,0-.7.7v6.288a.7.7,0,0,0,.7.7h4.677Z" transform="translate(-284.042 -239.388)"/><path class="l" d="M382.817,319.237a.7.7,0,0,1-.7.7h-3.832a.7.7,0,0,1-.7-.7V315.4a.7.7,0,0,1,.7-.7h3.832a.7.7,0,0,1,.7.7Z" transform="translate(-315.507 -270.853)"/><path class="i" d="M173.717,114.38H152.553a1.045,1.045,0,1,1,0-2.09h21.163a1.045,1.045,0,1,1,0,2.09Z" transform="translate(-120.928 -96.642)"/></g></svg>