<svg xmlns="http://www.w3.org/2000/svg" width="58" height="48" viewBox="0 0 58 48"><defs><style>.a{fill:#ffdaaa;}.b{fill:#ffc477;}.c{fill:#ed1c24;}.d{fill:#2488ff;}.e{fill:#005ece;}.f{fill:#6d6e71;}.g{fill:#f1f2f2;}.h{fill:#57a4ff;}.i{fill:#d91a21;}</style></defs><g transform="translate(-3 -13)"><path class="a" d="M61,13V51a2.006,2.006,0,0,1-2,2H13a2,2,0,0,1-2-2V13Z"/><path class="b" d="M25,53H59a2,2,0,0,0,2-2V17A36,36,0,0,1,25,53Z"/><path class="c" d="M17,19H55V43H17Z"/><path class="c" d="M11,41H8A5,5,0,0,0,8,51h5V41Z"/><path class="d" d="M13,41V51l11,6V35Z"/><path class="e" d="M28,43V37a2,2,0,0,0-2-2H24V57h2a2,2,0,0,0,2-2Z"/><path class="f" d="M9,59a2,2,0,0,0,4,0V51H9Z"/><path class="g" d="M32,25V37l10-6Z"/><path class="h" d="M32,48a1,1,0,0,0,1-1H31A1,1,0,0,0,32,48Z"/><path class="h" d="M32,46a1,1,0,0,0-1,1h2A1,1,0,0,0,32,46Z"/><path class="f" d="M28,46H55a1,1,0,0,1,0,2H28Z"/><path class="i" d="M11,41h2V51H11Z"/></g></svg>