<svg xmlns="http://www.w3.org/2000/svg" width="168.55" height="210.831" viewBox="0 0 168.55 210.831"><defs><style>.a{fill:#c6cbcb;}.b{fill:#f2b643;}.c,.k{fill:#d89932;}.d{fill:#f3be54;}.e{fill:#c60607;}.f{fill:#d1d5d5;}.g,.i{fill:#fe0002;}.h{fill:#e2e5e7;}.i{opacity:0.37;}.j{fill:#b9483e;opacity:0.47;}.k{opacity:0.29;}</style></defs><g transform="translate(-51.14 11.093) rotate(-3)"><g transform="translate(43.313 147.332)"><path class="a" d="M84.108,405.658,49.987,416.49l.738,2.423L84.846,408.08Z" transform="translate(-47.341 -392.153)"/><path class="a" d="M87.965,418.293l-34.116,10.85.813,2.67,34.122-10.834Z" transform="translate(-49.672 -399.778)"/><path class="a" d="M79.969,392.063,45.849,402.9l.879,2.887,34.12-10.833Z" transform="translate(-44.844 -383.948)"/><path class="a" d="M68.719,371.9,48.41,377.843A6.8,6.8,0,0,0,43.8,382l30.493-9.33A6.432,6.432,0,0,0,68.719,371.9Z" transform="translate(-43.606 -371.596)"/><path class="a" d="M75.834,380.049,43.528,390.306a4.49,4.49,0,0,0-.028,2.653l.059.193,34.107-10.83A4.594,4.594,0,0,0,75.834,380.049Z" transform="translate(-43.313 -376.697)"/><path class="a" d="M77.888,495.22a7.413,7.413,0,0,0,5.319.288l21.527-6.555a7.256,7.256,0,0,0,4.512-3.689Z" transform="translate(-64.18 -440.196)"/><path class="a" d="M91.993,431.545,57.872,442.379,58.7,445.1l34.121-10.834Z" transform="translate(-52.1 -407.776)"/><path class="a" d="M100.032,457.947,65.911,468.781l.793,2.6,34.122-10.834Z" transform="translate(-56.951 -423.71)"/><path class="a" d="M104.776,473.52l-.668-2.192L69.986,482.162l.544,1.787a4.38,4.38,0,0,0,.241.607l34.056-10.813C104.81,473.669,104.8,473.594,104.776,473.52Z" transform="translate(-59.411 -431.786)"/><path class="a" d="M95.986,444.658,61.864,455.492l.794,2.606L96.78,447.264Z" transform="translate(-54.509 -415.69)"/></g><g transform="translate(78.118 128.962)"><path class="b" d="M172.968,331.873l19.345,28.544a28.7,28.7,0,0,1-14.16,12.5c-10.233,4.319-16.22,5.477-20.353,5.889s-7.876.156-9.893,1.024-6.787,2.641-6.787,2.641l-9.353-30.46s3.709-1.492,7.44-9.091,5.837-10.053,5.837-10.053,9.763-4.1,15.935-5.519,8.494-2.39,9.668-.473A35.889,35.889,0,0,1,172.968,331.873Z" transform="translate(-131.5 -325.592)"/><path class="c" d="M140.575,382.427l-.067-.219L131.1,351.56l.184-.075c.036-.015,3.687-1.571,7.328-8.986,3.7-7.536,5.779-10,5.866-10.1l.034-.039.046-.019c.1-.042,9.851-4.12,15.97-5.531.958-.222,1.823-.431,2.6-.62,2.643-.641,4.387-1.066,5.575-.891a2.277,2.277,0,0,1,1.721,1.134,36.183,36.183,0,0,1,2.332,5.006l19.4,28.625-.053.111a29.2,29.2,0,0,1-14.272,12.611c-10.76,4.542-16.8,5.545-20.416,5.906-1.46.145-2.9.209-4.171.266a18.511,18.511,0,0,0-5.658.739c-2,.86-6.749,2.628-6.8,2.646ZM131.624,351.8l9.231,30.061c.952-.355,4.816-1.807,6.562-2.557a18.724,18.724,0,0,1,5.809-.776c1.328-.057,2.7-.118,4.15-.263,3.583-.358,9.584-1.354,20.29-5.873A28.933,28.933,0,0,0,191.659,360.1l-19.288-28.458-.008-.025a36,36,0,0,0-2.3-4.956,1.846,1.846,0,0,0-1.414-.934c-1.106-.161-2.819.254-5.411.883-.784.19-1.65.4-2.611.622-5.86,1.35-15.093,5.172-15.85,5.487-.276.34-2.348,2.99-5.774,9.97C135.691,349.422,132.424,351.4,131.624,351.8Z" transform="translate(-131.097 -325.262)"/><g transform="translate(35.325 28.131)"><path class="b" d="M245.556,399.72s-.638-3.554-3.938-2.876a99.289,99.289,0,0,0-16.729,5.806c-3.847,1.862-4.5,2.867-4.029,5.663s3.64,3.459,4.934,3.05.9-.006,17.671-5.568c0,0,3.1-1.355,2.629-3.558Z" transform="translate(-220.517 -396.542)"/><path class="c" d="M223.972,411.311h0a4.1,4.1,0,0,1-3.649-3.29c-.486-2.925.289-4.025,4.149-5.894a100.066,100.066,0,0,1,16.779-5.823,3.857,3.857,0,0,1,1.338-.055c2.333.341,2.835,2.992,2.855,3.1l.537,2.511c.5,2.346-2.621,3.74-2.754,3.8-13.494,4.478-15.855,5.087-16.989,5.381-.264.069-.452.117-.7.2A3.638,3.638,0,0,1,223.972,411.311Zm18.555-14.634a3.466,3.466,0,0,0-1.189.05,99.6,99.6,0,0,0-16.679,5.789c-3.9,1.888-4.34,2.854-3.911,5.435a3.679,3.679,0,0,0,3.286,2.934,3.244,3.244,0,0,0,1.371-.055c.259-.082.452-.132.725-.2,1.13-.292,3.48-.9,16.943-5.366.011-.006,2.914-1.3,2.486-3.307l-.539-2.517C245.016,399.405,244.551,396.972,242.527,396.676Z" transform="translate(-220.194 -396.213)"/></g><g transform="translate(31.06 20.089)"><path class="b" d="M237.347,379.371a3.557,3.557,0,0,0-3.937-2.877c-3.354.322-14.311,4.325-17.994,6.492s-5.839,3.108-5.374,5.9,3.658,3.465,4.952,3.056,20.262-6.5,20.262-6.5,3.1-1.354,2.629-3.557Z" transform="translate(-209.764 -376.256)"/><path class="c" d="M213.169,391.894h0a4.112,4.112,0,0,1-3.667-3.3c-.447-2.685,1.412-3.763,4.493-5.552.314-.182.643-.372.984-.573,3.811-2.246,14.8-6.208,18.082-6.522a4.639,4.639,0,0,1,1.107.02A3.868,3.868,0,0,1,237.232,379l.537,2.511c.5,2.348-2.62,3.741-2.753,3.8-.211.069-19,6.106-20.284,6.509A3.626,3.626,0,0,1,213.169,391.894ZM234.106,376.4a4.18,4.18,0,0,0-1-.018c-3.248.31-14.126,4.238-17.905,6.465-.341.2-.67.391-.986.575-3.019,1.751-4.682,2.715-4.284,5.106a3.7,3.7,0,0,0,3.3,2.94h0a3.257,3.257,0,0,0,1.371-.054c1.279-.4,20.072-6.44,20.261-6.5.008-.006,2.912-1.3,2.484-3.306l-.539-2.517A3.374,3.374,0,0,0,234.106,376.4Z" transform="translate(-209.437 -375.929)"/></g><g transform="translate(29.477 12.056)"><path class="b" d="M232.4,359.072a3.559,3.559,0,0,0-3.971-2.832c-3.348.361-12.023,4.127-15.68,6.337s-7.215,4.178-6.717,6.968,2.871,2.783,4.161,2.359,20.186-6.735,20.186-6.735,3.083-1.39,2.587-3.588S232.4,359.072,232.4,359.072Z" transform="translate(-205.774 -355.997)"/><path class="c" d="M208.041,371.961h0a2.943,2.943,0,0,1-2.546-2.7c-.5-2.787,2.771-4.755,6.231-6.836l.587-.355c3.625-2.191,12.314-6,15.769-6.367a4.6,4.6,0,0,1,1.152.014,3.876,3.876,0,0,1,3.053,2.99l.566,2.5c.528,2.342-2.577,3.772-2.71,3.832-.209.071-18.931,6.326-20.206,6.744A4.267,4.267,0,0,1,208.041,371.961Zm21.131-15.821a4.175,4.175,0,0,0-1.044-.012c-3.345.359-12.084,4.186-15.592,6.308l-.588.354c-3.328,2-6.473,3.9-6.027,6.391a2.542,2.542,0,0,0,2.183,2.353h0a3.847,3.847,0,0,0,1.7-.161c1.273-.418,19.995-6.672,20.183-6.735.008-.006,2.9-1.337,2.446-3.334l-.569-2.511A3.379,3.379,0,0,0,229.172,356.14Z" transform="translate(-205.444 -355.67)"/></g><g transform="translate(27.51 3.126)"><path class="b" d="M226.395,336.225a3.558,3.558,0,0,0-4.224-2.437c-3.3.68-11.9,4.8-15.331,7.352s-6.451,5.31-5.686,8.04,3.125,2.5,4.368,1.949,19.447-8.641,19.447-8.641,2.936-1.679,2.231-3.818Z" transform="translate(-200.815 -333.475)"/><path class="c" d="M203.085,351.326h0a2.973,2.973,0,0,1-2.472-2.418c-.809-2.893,2.293-5.684,5.766-8.269,3.438-2.56,12.083-6.7,15.417-7.392a4.333,4.333,0,0,1,1.507-.06,3.865,3.865,0,0,1,2.967,2.648l.8,2.439c.751,2.281-2.2,4-2.33,4.072-.2.092-18.238,8.113-19.467,8.652A4.186,4.186,0,0,1,203.085,351.326Zm20.154-17.713a3.935,3.935,0,0,0-1.358.058c-3.293.678-11.841,4.78-15.245,7.314-3.19,2.374-6.349,5.157-5.608,7.807a2.567,2.567,0,0,0,2.12,2.106h0a3.747,3.747,0,0,0,1.955-.295c1.228-.539,19.264-8.559,19.445-8.641.009-.006,2.756-1.608,2.116-3.554l-.805-2.445A3.44,3.44,0,0,0,223.239,333.612Z" transform="translate(-200.483 -333.146)"/></g><g transform="translate(0.184 0.004)"><g transform="translate(0.081 0.212)"><path class="b" d="M133.067,389.836l-1.3.821A6.318,6.318,0,0,0,133.067,389.836Z" transform="translate(-131.765 -364.45)"/><path class="b" d="M178.775,339.014a49.653,49.653,0,0,1-3.654-6.888,43.492,43.492,0,0,0-2.494-5.247c-1.174-1.917-3.5-.949-9.668.473s-15.935,5.519-15.935,5.519-2.106,2.455-5.837,10.053c-2.371,4.828-4.731,7.189-6.138,8.269L153.5,339.565c10.518,3.4,13.729-2.134,13.729-2.134a13.377,13.377,0,0,0,5.209,7.636c2.39,1.55,7.488,1.752,8.743.626S180.491,341.448,178.775,339.014Z" transform="translate(-133.746 -325.808)"/></g><path class="c" d="M131.722,351.893l-.162-.4c.036-.015,3.687-1.571,7.328-8.986,3.7-7.536,5.779-10,5.866-10.1l.034-.039.046-.019c.1-.042,9.851-4.12,15.97-5.531.958-.222,1.823-.431,2.606-.621,4.271-1.036,6.222-1.509,7.3.245a44.308,44.308,0,0,1,2.511,5.28,49.856,49.856,0,0,0,3.63,6.844c1.828,2.593,3.75,5.727,2.371,6.965-1.425,1.276-6.644.925-9.006-.607a13.468,13.468,0,0,1-5.174-7.34c-.981,1.2-4.782,4.745-13.713,1.862l.133-.412c10.237,3.3,13.446-1.982,13.476-2.036l.256-.441.139.492a13.185,13.185,0,0,0,5.118,7.512c2.305,1.495,7.317,1.691,8.483.647,1.271-1.139-1.519-5.094-2.436-6.394a50.03,50.03,0,0,1-3.675-6.927,43.61,43.61,0,0,0-2.481-5.22c-.909-1.485-2.64-1.066-6.825-.051-.784.19-1.65.4-2.611.622-5.86,1.35-15.093,5.172-15.85,5.487-.276.34-2.348,2.99-5.774,9.97C135.55,350.283,131.876,351.83,131.722,351.893Z" transform="translate(-131.56 -325.273)"/></g><g transform="translate(46.596 3.52)"><path class="d" d="M251.606,343.454c1.306-.58,2.01-.878,2.01-.878s2.71-1.521,2.095-3.688a15.984,15.984,0,0,0-.931-2.672,3.339,3.339,0,0,0-3.87-1.972,22.273,22.273,0,0,0-2.288.728,3.007,3.007,0,0,1,1.706,1.2c.622.965,1.93,4.32,1.811,5.5A3.992,3.992,0,0,1,251.606,343.454Z" transform="translate(-248.621 -334.141)"/></g><g transform="translate(49.567 12.364)"><path class="d" d="M258.9,365.686c1.3-.428,2.038-.757,2.038-.757s2.638-1.3,2.149-3.5a11.3,11.3,0,0,0-.975-3.015,3.047,3.047,0,0,0-3.652-1.881,8.709,8.709,0,0,0-2.344.857,2.486,2.486,0,0,1,1.771,1.087c.592.982,1.8,4.377,1.639,5.555A3.012,3.012,0,0,1,258.9,365.686Z" transform="translate(-256.113 -356.447)"/></g><g transform="translate(52.497 20.531)"><path class="d" d="M266.127,386.013a5.72,5.72,0,0,0,2.244-.926,2.818,2.818,0,0,0,1.574-3.3,17.69,17.69,0,0,0-.719-2.778s-.963-2-2.638-1.969a7.528,7.528,0,0,1-3.083,1.439,3.029,3.029,0,0,1,1.725,1.253,11.5,11.5,0,0,1,1.407,4.931C266.48,385.845,266.127,386.013,266.127,386.013Z" transform="translate(-263.504 -377.044)"/></g><g transform="translate(55.001 28.624)"><path class="d" d="M272.334,406.238c1.632-.47,3.657-1.82,3.156-3.983a22.1,22.1,0,0,0-.8-2.862,3.147,3.147,0,0,0-1.847-1.935,8.161,8.161,0,0,1-3.025,1.378,2.956,2.956,0,0,1,1.673,1.239,11.215,11.215,0,0,1,1.329,4.828C272.658,406.052,272.334,406.238,272.334,406.238Z" transform="translate(-269.819 -397.457)"/></g></g><g transform="translate(49.083 0)"><path class="b" d="M66.663,235.823l-8.183,2.084s-2.509,8.167,2.616,13.511l7.766-1.487Z" transform="translate(-57.866 -142.323)"/><path class="c" d="M68.3,249.493l.563,3.61L61.1,254.589c-5.125-5.345-2.616-13.511-2.616-13.511s-.044,7.436,3.039,9.674Z" transform="translate(-57.866 -145.494)"/><path class="e" d="M196.744,295.3l1.155,5.441-27.715,5.087-1.2-4.749Z" transform="translate(-124.928 -178.22)"/><path class="e" d="M202.9,317.01s5.518,26.972,16.913,49.007l-21.863,7.821a272.984,272.984,0,0,1-18.127-52.21Z" transform="translate(-131.471 -191.321)"/><path class="e" d="M246.514,438.766l-24.134,8.729,1.726,5.391,24.429-9.316Z" transform="translate(-157.153 -264.802)"/><path class="f" d="M256.324,1s-32.837,43.437-52.091,54.4-36.674,9.4-36.674,9.4l9.735,57.553s17.531-6.295,30.3-4.915,30.278,5.914,76.179,36.273Z" transform="translate(-124.067 -0.601)"/><path class="g" d="M113.045,161.9s-39.326-.839-35.56,33.684,45.294,23.869,45.294,23.869Z" transform="translate(-69.553 -97.707)"/><path class="a" d="M185.183,258.963l2.748,16.469s17.531-6.295,30.3-4.915,30.278,5.914,76.179,36.273l-3.9-21.667-27.547-15.452S239,257.333,222.341,255.137,185.183,258.963,185.183,258.963Z" transform="translate(-134.704 -153.688)"/><path class="e" d="M82.769,192.3c-3.966,4.926-6.35,11.863-5.284,21.631,3.764,34.523,45.294,23.869,45.294,23.869l-2.748-16.469s-7.264,1.546-18.389-1.93C84.12,213.924,82.769,192.3,82.769,192.3Z" transform="translate(-69.553 -116.057)"/><path class="h" d="M168.251,69.065l-.691-4.274s17.419,1.567,36.674-9.4,52.09-54.4,52.09-54.4l1.208,6.722s-20.044,24.3-25.145,30.6c-5.682,7.021-15.907,17.739-29.414,24.05C197.743,64.816,184.476,68.916,168.251,69.065Z" transform="translate(-124.068 -0.601)"/><path class="e" d="M412.071,74.893c7.326,42.271,8.964,77.282,3.661,78.2s-15.535-32.6-22.86-74.873S383.909.938,389.21.019,404.746,32.623,412.071,74.893Z" transform="translate(-255.96 0)"/><path class="g" d="M418.024,120.076c1.58,19.491.908,32.463-2.292,33.016-5.3.92-15.535-32.6-22.86-74.873S383.909.938,389.21.019c2.163-.375,5.146,4.979,8.417,14.319,0,0-3.641-6.943-6.5-5.886s2.935,55.572,6.224,70.085,11.89,63.367,16.567,64.8S418.024,120.076,418.024,120.076Z" transform="translate(-255.96 0)"/><path class="b" d="M413.811,188.476s17.455-5.3,14.037-22.293-20.963-15.493-20.963-15.493S409.532,169.365,413.811,188.476Z" transform="translate(-268.504 -90.924)"/><path class="g" d="M119.339,166.165l-.721-4.267s-23.026-.492-32.153,14.745C86.466,176.644,94.977,163.894,119.339,166.165Z" transform="translate(-75.127 -97.707)"/><path class="c" d="M419.154,185.9a24.447,24.447,0,0,1-5.343,2.574c-4.279-19.111-6.926-37.785-6.926-37.785a17.63,17.63,0,0,1,2.036-.013s2.127,19.851,4.819,26.79S419.154,185.9,419.154,185.9Z" transform="translate(-268.504 -90.924)"/><path class="i" d="M215.964,363.2c.433.886,3.4,7.243,3.853,8.115l-21.863,7.821a272.983,272.983,0,0,1-18.127-52.21l6.131-1.138s8.123,29.917,12.867,38.247c2.892,5.079,9.46.95,9.46.95Z" transform="translate(-131.471 -196.618)"/><path class="e" d="M222.923,386.281a71.012,71.012,0,0,0-9.3,2.419c-4.217,1.491-9.637,3.112-12.41-1.164,0,0-1.588-2.561-.675-4.317a6.469,6.469,0,0,1-3.551-3.065c-.917-2.172-.933-3.555.467-5.167a5.987,5.987,0,0,1-2.464-2.544c-.706-1.63.217-3.458,1.1-4.494,0,0-2.462-.578-3.025-2.189s-.448-2.9.339-3.8c0,0-3.066.058-4.251-1.278l6.448-1.309,26.337,24.73Z" transform="translate(-137.098 -216.885)"/><path class="j" d="M244.664,434.648l-21.69,8.028c.649,1.409,1.02,2.158,1.02,2.158l21.863-7.821Q245.248,435.84,244.664,434.648Z" transform="translate(-157.511 -262.317)"/><path class="g" d="M199.564,308.109l.894,3.529-28,5.556-.559-3.947Z" transform="translate(-126.685 -185.949)"/></g><g transform="translate(68.265 128.966)"><g transform="translate(0)"><g transform="translate(45.178 28.127)"><path class="b" d="M245.556,399.72s-.638-3.554-3.938-2.876a99.289,99.289,0,0,0-16.729,5.806c-3.847,1.862-4.5,2.867-4.029,5.663s3.64,3.459,4.934,3.05.9-.006,17.671-5.568c0,0,3.1-1.355,2.629-3.558Z" transform="translate(-220.517 -396.542)"/><path class="c" d="M223.972,411.311h0a4.1,4.1,0,0,1-3.649-3.29c-.486-2.925.289-4.025,4.149-5.894a100.066,100.066,0,0,1,16.779-5.823,3.857,3.857,0,0,1,1.338-.055c2.333.341,2.835,2.992,2.855,3.1l.537,2.511c.5,2.346-2.621,3.74-2.754,3.8-13.494,4.478-15.855,5.087-16.989,5.381-.264.069-.452.117-.7.2A3.638,3.638,0,0,1,223.972,411.311Zm18.555-14.634a3.466,3.466,0,0,0-1.189.05,99.6,99.6,0,0,0-16.679,5.789c-3.9,1.888-4.34,2.854-3.911,5.435a3.679,3.679,0,0,0,3.286,2.934,3.244,3.244,0,0,0,1.371-.055c.259-.082.452-.132.725-.2,1.13-.292,3.48-.9,16.943-5.366.011-.006,2.914-1.3,2.486-3.307l-.539-2.517C245.016,399.405,244.551,396.972,242.527,396.676Z" transform="translate(-220.194 -396.213)"/></g><g transform="translate(40.913 20.084)"><path class="b" d="M237.347,379.371a3.557,3.557,0,0,0-3.937-2.877c-3.354.322-14.311,4.325-17.994,6.492s-5.839,3.108-5.374,5.9,3.658,3.465,4.952,3.056,20.262-6.5,20.262-6.5,3.1-1.354,2.629-3.557Z" transform="translate(-209.764 -376.256)"/><path class="c" d="M213.169,391.894h0a4.112,4.112,0,0,1-3.667-3.3c-.447-2.685,1.412-3.763,4.493-5.552.314-.182.643-.372.984-.573,3.811-2.246,14.8-6.208,18.082-6.522a4.639,4.639,0,0,1,1.107.02A3.868,3.868,0,0,1,237.232,379l.537,2.511c.5,2.348-2.62,3.741-2.753,3.8-.211.069-19,6.106-20.284,6.509A3.626,3.626,0,0,1,213.169,391.894ZM234.106,376.4a4.18,4.18,0,0,0-1-.018c-3.248.31-14.126,4.238-17.905,6.465-.341.2-.67.391-.986.575-3.019,1.751-4.682,2.715-4.284,5.106a3.7,3.7,0,0,0,3.3,2.94h0a3.257,3.257,0,0,0,1.371-.054c1.279-.4,20.072-6.44,20.261-6.5.008-.006,2.912-1.3,2.484-3.306l-.539-2.517A3.374,3.374,0,0,0,234.106,376.4Z" transform="translate(-209.437 -375.929)"/></g><g transform="translate(39.33 12.052)"><path class="b" d="M232.4,359.072a3.559,3.559,0,0,0-3.971-2.832c-3.348.361-12.023,4.127-15.68,6.337s-7.215,4.178-6.717,6.968,2.871,2.783,4.161,2.359,20.186-6.735,20.186-6.735,3.083-1.39,2.587-3.588S232.4,359.072,232.4,359.072Z" transform="translate(-205.774 -355.997)"/><path class="c" d="M208.041,371.961h0a2.943,2.943,0,0,1-2.546-2.7c-.5-2.787,2.771-4.755,6.231-6.836l.587-.355c3.625-2.191,12.314-6,15.769-6.367a4.6,4.6,0,0,1,1.152.014,3.876,3.876,0,0,1,3.053,2.99l.566,2.5c.528,2.342-2.577,3.772-2.71,3.832-.209.071-18.931,6.326-20.206,6.744A4.267,4.267,0,0,1,208.041,371.961Zm21.131-15.821a4.175,4.175,0,0,0-1.044-.012c-3.345.359-12.084,4.186-15.592,6.308l-.588.354c-3.328,2-6.473,3.9-6.027,6.391a2.542,2.542,0,0,0,2.183,2.353h0a3.847,3.847,0,0,0,1.7-.161c1.273-.418,19.995-6.672,20.183-6.735.008-.006,2.9-1.337,2.446-3.334l-.569-2.511A3.379,3.379,0,0,0,229.172,356.14Z" transform="translate(-205.444 -355.67)"/></g><g transform="translate(0 24.237)"><path class="h" d="M115.738,386.4l10.893,35.466-9.1,3.394-11.288-36.124Z" transform="translate(-106.247 -386.402)"/></g><g transform="translate(37.363 3.122)"><path class="b" d="M226.395,336.225a3.558,3.558,0,0,0-4.224-2.437c-3.3.68-11.9,4.8-15.331,7.352s-6.451,5.31-5.686,8.04,3.125,2.5,4.368,1.949,19.447-8.641,19.447-8.641,2.936-1.679,2.231-3.818Z" transform="translate(-200.815 -333.475)"/><path class="c" d="M203.085,351.326h0a2.973,2.973,0,0,1-2.472-2.418c-.809-2.893,2.293-5.684,5.766-8.269,3.438-2.56,12.083-6.7,15.417-7.392a4.333,4.333,0,0,1,1.507-.06,3.865,3.865,0,0,1,2.967,2.648l.8,2.439c.751,2.281-2.2,4-2.33,4.072-.2.092-18.238,8.113-19.467,8.652A4.186,4.186,0,0,1,203.085,351.326Zm20.154-17.713a3.935,3.935,0,0,0-1.358.058c-3.293.678-11.841,4.78-15.245,7.314-3.19,2.374-6.349,5.157-5.608,7.807a2.567,2.567,0,0,0,2.12,2.106h0a3.747,3.747,0,0,0,1.955-.295c1.228-.539,19.264-8.559,19.445-8.641.009-.006,2.756-1.608,2.116-3.554l-.805-2.445A3.44,3.44,0,0,0,223.239,333.612Z" transform="translate(-200.483 -333.146)"/></g><g transform="translate(10.036)"><g transform="translate(0.081 0.212)"><path class="b" d="M133.067,389.836l-1.3.821A6.318,6.318,0,0,0,133.067,389.836Z" transform="translate(-131.765 -364.45)"/><path class="b" d="M178.775,339.014a49.653,49.653,0,0,1-3.654-6.888,43.492,43.492,0,0,0-2.494-5.247c-1.174-1.917-3.5-.949-9.668.473s-15.935,5.519-15.935,5.519-2.106,2.455-5.837,10.053c-2.371,4.828-4.731,7.189-6.138,8.269L153.5,339.565c10.518,3.4,13.729-2.134,13.729-2.134a13.377,13.377,0,0,0,5.209,7.636c2.39,1.55,7.488,1.752,8.743.626S180.491,341.448,178.775,339.014Z" transform="translate(-133.746 -325.808)"/></g><path class="d" d="M165.251,332.871s9.763-4.1,15.935-5.519,8.494-2.39,9.668-.473a43.492,43.492,0,0,1,2.494,5.247A49.654,49.654,0,0,0,197,339.014c1.716,2.433,3.658,5.555,2.4,6.679,0,0,.312-.626-.362-1.978s-3.939-5.869-4.864-7.749-3.158-6.862-3.636-7.7a3.133,3.133,0,0,0-2.566-1.721,67.308,67.308,0,0,0-8.746,1.99C177.62,329.121,165.251,332.871,165.251,332.871Z" transform="translate(-151.893 -325.596)"/><path class="c" d="M131.722,351.893l-.162-.4c.036-.015,3.687-1.571,7.328-8.986,3.7-7.536,5.779-10,5.866-10.1l.034-.039.046-.019c.1-.042,9.851-4.12,15.97-5.531.958-.222,1.823-.431,2.606-.621,4.271-1.036,6.222-1.509,7.3.245a44.308,44.308,0,0,1,2.511,5.28,49.856,49.856,0,0,0,3.63,6.844c1.828,2.593,3.75,5.727,2.371,6.965-1.425,1.276-6.644.925-9.006-.607a13.468,13.468,0,0,1-5.174-7.34c-.981,1.2-4.782,4.745-13.713,1.862l.133-.412c10.237,3.3,13.446-1.982,13.476-2.036l.256-.441.139.492a13.185,13.185,0,0,0,5.118,7.512c2.305,1.495,7.317,1.691,8.483.647,1.271-1.139-1.519-5.094-2.436-6.394a50.03,50.03,0,0,1-3.675-6.927,43.61,43.61,0,0,0-2.481-5.22c-.909-1.485-2.64-1.066-6.825-.051-.784.19-1.65.4-2.611.622-5.86,1.35-15.093,5.172-15.85,5.487-.276.34-2.348,2.99-5.774,9.97C135.55,350.283,131.876,351.83,131.722,351.893Z" transform="translate(-131.56 -325.273)"/></g></g></g><path class="k" d="M218.339,391.824s-.568,4.8,3.079,7.268l-5.508,1.675a3.736,3.736,0,0,1-2.9.092,3.548,3.548,0,0,1-2.524-2.878,3.292,3.292,0,0,1,.845-2.6,15.126,15.126,0,0,1,3.6-2.445C216.715,392.294,218.339,391.824,218.339,391.824Z" transform="translate(-100.861 -236.471)"/><path class="k" d="M228.061,410.887a9.067,9.067,0,0,0,3.332,7.225l-5.188,1.531a3.979,3.979,0,0,1-4.349-1.593,4.673,4.673,0,0,1-.368-3.817,3.721,3.721,0,0,1,1.788-1.783C223.8,412.253,228.061,410.887,228.061,410.887Z" transform="translate(-107.383 -247.976)"/><path class="k" d="M213.39,373.1a8.776,8.776,0,0,0,2.554,6.883l-5.129,1.758s-2.482,1.055-3.829-.67.008-3.526.273-3.851a18.879,18.879,0,0,1,3.558-2.932A18.556,18.556,0,0,1,213.39,373.1Z" transform="translate(-98.424 -225.173)"/><path class="k" d="M207.342,356.328a14.3,14.3,0,0,0,3.576,5.981l-4.984,2.252s-2.956,1.312-3.914-1.083a3.984,3.984,0,0,1,.922-4.555A8.06,8.06,0,0,0,207.342,356.328Z" transform="translate(-95.563 -215.049)"/><path class="k" d="M189.149,362.672a277,277,0,0,0,13.159,36.253L197.715,400S192.625,375.18,189.149,362.672Z" transform="translate(-88.014 -218.878)"/><path class="k" d="M132.425,391.391l9.231,30.061,3.255-1.273s-8.09-17.622-11.612-29.318A4.741,4.741,0,0,1,132.425,391.391Z" transform="translate(-53.78 -235.89)"/></g></svg>