<svg xmlns="http://www.w3.org/2000/svg" width="28" height="28" viewBox="0 0 28 28"><defs><style>.a{fill:#ffcece;}.b{fill:#fe0002;}</style></defs><path class="a" d="M104.309,0,95.6,14l8.707,14a14,14,0,0,0,0-28Z" transform="translate(-90.206)"/><path class="a" d="M0,14A14.23,14.23,0,0,0,14.45,28V0A14.23,14.23,0,0,0,0,14Z"/><path class="b" d="M193.925,60l-3.713,5.927,3.713,5.927a5.927,5.927,0,1,0,0-11.853Z" transform="translate(-179.977 -56.613)"/><path class="b" d="M151,65.927a5.927,5.927,0,0,0,5.927,5.927V60A5.927,5.927,0,0,0,151,65.927Z" transform="translate(-142.811 -56.613)"/><path class="b" d="M208.906,302a5.932,5.932,0,0,0-4.439-2h-5.08L196,304.29l3.387,4.29a11.093,11.093,0,0,0,9.621-5.6l.3-.526Z" transform="translate(-185.575 -283.966)"/><path class="b" d="M85.082,300a5.932,5.932,0,0,0-4.439,2l-.4.454.3.526a11.093,11.093,0,0,0,9.621,5.6V300Z" transform="translate(-75.927 -283.966)"/></svg>