<svg xmlns="http://www.w3.org/2000/svg" width="39.063" height="37.714" viewBox="0 0 39.063 37.714"><defs><style>.a{fill:#fe0002;}</style></defs><path class="a" d="M31.588,21.406A4.04,4.04,0,0,0,27.6,14.5l-2.523-4.37a2.725,2.725,0,0,0-4.666-.092A40.09,40.09,0,0,1,8.268,22.322a.652.652,0,0,0-.218.857c.027.049,4.205,7.285,4.233,7.333a.651.651,0,1,0,1.128-.651L9.492,23.074A41.372,41.372,0,0,0,21.514,10.732a1.423,1.423,0,0,1,2.437.048l9.033,15.646a1.423,1.423,0,0,1-1.177,2.134,41.393,41.393,0,0,0-17.253,4.517c-.023.012-6.115,3.529-6.534,3.772A2.283,2.283,0,0,1,4.9,36.015L1.607,30.3a2.283,2.283,0,0,1,.835-3.115L6.411,24.9a.651.651,0,1,0-.651-1.128L1.791,26.06A3.586,3.586,0,0,0,.48,30.954l3.3,5.712a3.586,3.586,0,0,0,4.894,1.311l.15-.087,4.071,7.052a2.116,2.116,0,0,0,2.892.775l1.428-.824A2.116,2.116,0,0,0,17.987,42L15.1,37a.651.651,0,1,0-1.128.651l2.886,5a.814.814,0,0,1-.3,1.113l-1.428.824a.814.814,0,0,1-1.113-.3L9.949,37.239l5.213-3.01a40.088,40.088,0,0,1,16.7-4.368,2.725,2.725,0,0,0,2.253-4.086Zm-.186-4.5a2.743,2.743,0,0,1-.478,3.347l-2.66-4.607A2.738,2.738,0,0,1,31.4,16.909Zm6.368-2.895-1.685.973a.651.651,0,0,1-.651-1.128l1.685-.973a.651.651,0,1,1,.651,1.128ZM30.525,10.3l.411-1.533a.651.651,0,1,1,1.258.337l-.411,1.533a.651.651,0,1,1-1.258-.337Zm8.515,10.663a.651.651,0,0,1-.629.483,10.683,10.683,0,0,1-1.7-.433.651.651,0,1,1,.337-1.258l1.533.411a.651.651,0,0,1,.46.8Z" transform="translate(0 -8.288)"/></svg>