<svg xmlns="http://www.w3.org/2000/svg" width="122" height="94.101" viewBox="0 0 122 94.101"><defs><style>.a{fill:#f4f7fa;}</style></defs><path class="a" d="M307.328,53.413c16.566-.02,30.013,12.159,30.036,27.2s-13.388,27.256-29.954,27.277A31,31,0,0,1,282.83,96.318c.505,25.646,23.521,46.207,51.766,46.243a2.488,2.488,0,1,1,0,4.953c-31.61-.033-57.227-23.3-57.263-52V80.653C277.351,65.615,290.769,53.429,307.328,53.413Z" transform="translate(-277.333 -53.413)"/><path class="a" d="M29.995,53.413c16.566-.02,30.013,12.159,30.036,27.2s-13.388,27.256-29.954,27.277A31,31,0,0,1,5.5,96.318C6,121.964,29.018,142.525,57.263,142.561a2.488,2.488,0,1,1,0,4.953c-31.61-.033-57.227-23.3-57.263-52V80.653C.018,65.615,13.437,53.429,29.995,53.413Z" transform="translate(61.969 -53.413)"/></svg>